<?xml version="1.0" encoding="UTF-8" standalone="no"?>
<svg
   xmlns:dc="http://purl.org/dc/elements/1.1/"
   xmlns:cc="http://creativecommons.org/ns#"
   xmlns:rdf="http://www.w3.org/1999/02/22-rdf-syntax-ns#"
   xmlns:svg="http://www.w3.org/2000/svg"
   xmlns="http://www.w3.org/2000/svg"
   id="svg2583"
   version="1.1"
   viewBox="0 0 26.458333 30.532654"
   height="115.399"
   width="100">
  <defs
     id="defs2577" />
  <metadata
     id="metadata2580">
    <rdf:RDF>
      <cc:Work
         rdf:about="">
        <dc:format>image/svg+xml</dc:format>
        <dc:type
           rdf:resource="http://purl.org/dc/dcmitype/StillImage" />
        <dc:title></dc:title>
      </cc:Work>
    </rdf:RDF>
  </metadata>
  <g
     transform="translate(0,-266.46734)"
     id="layer1">
    <path
       id="path830"
       d="m 10.623943,266.46731 v 8.34383 A 8.7342033,8.7342033 0 0 1 4.494655,266.47521 H 0 a 13.228999,13.228999 0 0 0 9.577904,12.70971 H 0 v 5.10774 H 9.589754 A 13.228999,13.228999 0 0 0 0,296.99999 h 4.494655 a 8.7342033,8.7342033 0 0 1 6.129288,-8.32724 v 8.32724 h 5.107741 v -8.36437 a 8.7342033,8.7342033 0 0 1 6.231995,8.36437 h 4.494655 a 13.228999,13.228999 0 0 0 -9.571581,-12.70733 h 9.571581 v -5.10774 h -9.598443 a 13.228999,13.228999 0 0 0 9.598443,-12.70971 h -4.494655 a 8.7342033,8.7342033 0 0 1 -6.231995,8.36121 v -8.36911 z"
       style="opacity:1;fill:#000000;fill-opacity:1;stroke-width:0.60911822" />
  </g>
</svg>
