<?xml version="1.0" encoding="UTF-8" standalone="no"?>
<svg
   xmlns:dc="http://purl.org/dc/elements/1.1/"
   xmlns:cc="http://creativecommons.org/ns#"
   xmlns:rdf="http://www.w3.org/1999/02/22-rdf-syntax-ns#"
   xmlns:svg="http://www.w3.org/2000/svg"
   xmlns="http://www.w3.org/2000/svg"
   width="100"
   height="50.535999"
   viewBox="0 0 26.458333 13.370984"
   version="1.1"
   id="svg1523">
  <defs
     id="defs1517" />
  <metadata
     id="metadata1520">
    <rdf:RDF>
      <cc:Work
         rdf:about="">
        <dc:format>image/svg+xml</dc:format>
        <dc:type
           rdf:resource="http://purl.org/dc/dcmitype/StillImage" />
        <dc:title></dc:title>
      </cc:Work>
    </rdf:RDF>
  </metadata>
  <g
     id="layer1"
     transform="translate(0,-283.62899)">
    <path
       style="fill:#000000;fill-opacity:1;stroke-width:0;stroke-linejoin:miter;stroke-miterlimit:4;stroke-dasharray:none"
       d="m 0,283.62944 a 5.6359596,5.6359596 0 0 0 3.7082381,5.28841 H 0.00602958 4.0194932e-4 v 2.67656 H 0.00602958 3.7084396 A 5.6359596,5.6392743 0 0 0 0,296.88624 h 2.6763633 a 2.9595221,2.9612626 0 0 1 1.6213747,-2.64099 v 2.63375 0.003 h 2.676363 v -2.63395 a 2.9595221,2.9612626 0 0 1 1.6213747,2.63777 h 2.6763633 a 5.6359596,5.6392743 0 0 0 -3.7012034,-5.29184 h 3.7016064 0.0028 v -2.67655 h -0.0028 -3.701205 a 5.6359596,5.6359596 0 0 0 3.700802,-5.28841 H 8.5954757 a 2.9595221,2.9595221 0 0 1 -1.6213747,2.63616 v -2.63415 H 4.297738 v 2.63717 a 2.9595221,2.9595221 0 0 1 -1.6213747,-2.63918 z"
       id="rect1404" />
    <path
       style="font-style:normal;font-variant:normal;font-weight:normal;font-stretch:condensed;font-size:23.454916px;line-height:1.25;font-family:Impact;-inkscape-font-specification:'Impact, Condensed';font-variant-ligatures:normal;font-variant-caps:normal;font-variant-numeric:normal;font-feature-settings:normal;text-align:start;letter-spacing:0px;word-spacing:0px;writing-mode:lr-tb;text-anchor:start;fill:#1a1a1a;fill-opacity:1;stroke:none;stroke-width:0.22806187"
       d="m 13.050789,283.62944 v 4.26719 c 0,0.81365 0.01473,1.3481 0.04442,1.60348 0.0297,0.25241 0.126299,0.49289 0.289624,0.72155 0.163326,0.22866 0.409817,0.4144 0.739438,0.55694 0.329619,0.14254 0.709622,0.21385 1.140207,0.21385 0.389012,0 0.726096,-0.0595 1.011173,-0.17828 0.288048,-0.12174 0.519614,-0.29838 0.694818,-0.53 0.175204,-0.2346 0.280721,-0.46181 0.316356,-0.68155 0.03563,-0.22272 0.05346,-0.60728 0.05346,-1.15368 v -4.8195 h -1.875223 v 5.31394 c 0,0.35931 -0.01783,0.58797 -0.05346,0.68597 -0.03267,0.095 -0.108535,0.1425 -0.227317,0.1425 -0.103935,0 -0.173594,-0.0431 -0.20923,-0.12924 -0.03266,-0.0891 -0.04904,-0.29101 -0.04904,-0.60578 v -5.40739 z m 4.694892,0 v 1.4431 h 1.109054 v 5.76836 h 1.875223 v -5.76836 h 1.113678 v -1.4431 z m 4.525457,0 v 7.21146 h 1.567912 v -3.27832 l 0.975599,3.27832 h 1.643684 v -7.21146 h -1.567911 v 3.24717 l -1.051372,-3.24717 z m -1.206132,7.73444 c -0.305136,0 -0.575702,0.0525 -0.811792,0.15717 -0.233864,0.10246 -0.417675,0.24388 -0.551312,0.42429 -0.131409,0.18041 -0.21044,0.36858 -0.237166,0.56458 -0.02673,0.19377 -0.0402,0.48553 -0.0402,0.8753 v 1.58017 c 0,0.53009 0.04358,0.92783 0.130441,1.19287 0.08686,0.26282 0.263941,0.46881 0.531213,0.61804 0.267273,0.14923 0.606766,0.2237 1.018811,0.2237 0.396454,0 0.729614,-0.0879 0.999114,-0.2639 0.271727,-0.17595 0.446425,-0.38076 0.524379,-0.61462 0.08018,-0.23387 0.120392,-0.6304 0.120392,-1.18945 v -0.21044 h -1.406517 v 0.67814 c 0,0.29623 -0.01684,0.4844 -0.05025,0.56457 -0.03118,0.0802 -0.09912,0.1204 -0.203802,0.1204 -0.109136,0 -0.179253,-0.0402 -0.210435,-0.1204 -0.03118,-0.0802 -0.04683,-0.2515 -0.04683,-0.51432 v -2.51236 c 0,-0.27396 0.01565,-0.45222 0.04683,-0.53463 0.03118,-0.0824 0.104667,-0.12361 0.220485,-0.12361 0.102454,0 0.168215,0.0345 0.19717,0.10351 0.03118,0.0668 0.04683,0.23716 0.04683,0.51112 v 0.94223 h 1.406517 v -0.51453 c 0,-0.5056 -0.04239,-0.87757 -0.127024,-1.11589 -0.08464,-0.24054 -0.261713,-0.441 -0.531213,-0.60136 -0.2695,-0.16036 -0.611372,-0.24058 -1.025645,-0.24058 z m -8.014819,0.11376 v 5.4088 h 1.406517 v -2.27177 h 0.868673 v -1.02906 h -0.868673 v -1.02565 h 0.975598 v -1.08232 z m 2.726208,0 v 5.4088 h 1.406518 v -2.43879 c 0.193772,0 0.312812,0.0345 0.357357,0.10351 0.04677,0.069 0.07015,0.2483 0.07015,0.53784 v 1.79744 h 1.306425 v -1.42662 c 0,-0.43654 -0.01228,-0.70255 -0.03678,-0.79832 -0.02228,-0.098 -0.0813,-0.20496 -0.177071,-0.32078 -0.09577,-0.11582 -0.282953,-0.20832 -0.561361,-0.27736 0.307363,-0.029 0.513559,-0.11571 0.618241,-0.26048 0.104681,-0.14478 0.156972,-0.42762 0.156972,-0.84858 0,-0.46104 -0.07467,-0.79638 -0.223902,-1.00575 -0.147,-0.21159 -0.338535,-0.3429 -0.574625,-0.39413 -0.233864,-0.0512 -0.682696,-0.0768 -1.346423,-0.0768 z m 7.463509,0 v 3.20054 c 0,0.61027 0.01109,1.01117 0.03336,1.20272 0.02227,0.18931 0.09477,0.36976 0.217269,0.54126 0.1225,0.1715 0.3073,0.31054 0.554527,0.41745 0.247228,0.10691 0.532251,0.16039 0.855206,0.16039 0.291773,0 0.544713,-0.0446 0.758532,-0.13366 0.216044,-0.0913 0.389753,-0.22383 0.521163,-0.39755 0.131409,-0.17596 0.210438,-0.3463 0.237167,-0.51112 0.02673,-0.16704 0.04,-0.45543 0.04,-0.86525 v -3.61478 H 25.05061 v 3.9856 c 0,0.2695 -0.01327,0.44103 -0.04,0.51454 -0.0245,0.0713 -0.08135,0.10692 -0.170439,0.10692 -0.07795,0 -0.130245,-0.0323 -0.156972,-0.0969 -0.0245,-0.0668 -0.03678,-0.21834 -0.03678,-0.45444 v -4.05574 z m -6.056991,0.92535 c 0.16259,0 0.273906,0.0268 0.334042,0.0802 0.06236,0.0534 0.09346,0.16596 0.09346,0.33746 v 0.29726 c 0,0.23831 -0.03229,0.37974 -0.09688,0.42429 -0.06236,0.0423 -0.172491,0.0635 -0.330626,0.0635 z"
       id="path2103" />
  </g>
</svg>
