<?xml version="1.0" encoding="UTF-8" standalone="no"?>
<svg
   xmlns:dc="http://purl.org/dc/elements/1.1/"
   xmlns:cc="http://creativecommons.org/ns#"
   xmlns:rdf="http://www.w3.org/1999/02/22-rdf-syntax-ns#"
   xmlns:svg="http://www.w3.org/2000/svg"
   xmlns="http://www.w3.org/2000/svg"
   width="100"
   height="19.056"
   viewBox="0 0 26.458333 5.0419001"
   version="1.1"
   id="svg979">
  <defs
     id="defs973" />
  <metadata
     id="metadata976">
    <rdf:RDF>
      <cc:Work
         rdf:about="">
        <dc:format>image/svg+xml</dc:format>
        <dc:type
           rdf:resource="http://purl.org/dc/dcmitype/StillImage" />
        <dc:title></dc:title>
      </cc:Work>
    </rdf:RDF>
  </metadata>
  <g
     id="layer1"
     transform="translate(0,-291.95809)">
    <path
       style="opacity:1;fill:#000000;fill-opacity:1;stroke-width:0.09599724"
       d="m 12.620861,292.0723 v 1.31503 a 1.3765135,1.3765135 0 0 1 -0.965982,-1.3138 h -0.708401 a 2.0848948,2.0848948 0 0 0 1.5095,2.00314 h -1.5095 v 0.80503 h 1.510957 a 2.0848948,2.0848948 0 0 0 -1.510957,2.00269 h 0.708401 a 1.3765135,1.3765135 0 0 1 0.965982,-1.31245 v 1.31245 h 0.805022 v -1.31828 a 1.3765135,1.3765135 0 0 1 0.982121,1.31828 h 0.70829 a 2.0848948,2.0848948 0 0 0 -1.508155,-2.00269 h 1.508155 v -0.80503 h -1.512863 a 2.0848948,2.0848948 0 0 0 1.512863,-2.00314 h -0.70829 a 1.3765135,1.3765135 0 0 1 -0.982121,1.31783 v -1.31906 z"
       id="path860" />
    <path
       style="font-style:normal;font-variant:normal;font-weight:900;font-stretch:condensed;font-size:29.57159615px;line-height:1.25;font-family:'Helvetica LT Std';-inkscape-font-specification:'Helvetica LT Std, Heavy Condensed';font-variant-ligatures:normal;font-variant-caps:normal;font-variant-numeric:normal;font-feature-settings:normal;text-align:start;letter-spacing:0px;word-spacing:0px;writing-mode:lr-tb;text-anchor:start;fill:#000000;fill-opacity:1;stroke:none;stroke-width:0.16035497"
       d="m 17.778066,291.95842 c -1.032691,0 -1.513759,0.4874 -1.513759,1.53293 v 1.97556 c 0,0.98138 0.404038,1.53304 1.443143,1.53304 1.154561,0 1.62921,-0.57726 1.62921,-1.4047 v -0.59014 h -1.128846 v 0.43624 c 0,0.29506 -0.03212,0.69271 -0.41697,0.69271 -0.295055,0 -0.40408,-0.16035 -0.40408,-0.42974 l 0.0064,-2.37976 c 0,-0.3143 0.08335,-0.50667 0.436138,-0.50025 0.211669,0 0.359244,0.21169 0.359244,0.6222 v 0.30779 h 1.128958 v -0.40408 c 0,-0.98137 -0.577293,-1.3918 -1.539427,-1.3918 z M 0,292.0723 v 3.48294 c 0,0.98779 0.55803907,1.44314 1.513759,1.44314 1.1545611,0 1.5201481,-0.62853 1.5201481,-1.44314 V 292.0723 H 1.905061 v 3.59839 c 0,0.20526 -0.089858,0.4618 -0.3849129,0.4618 -0.3207114,0 -0.3911899,-0.19883 -0.3911899,-0.42975 v -3.63044 z m 3.4421345,0 v 0.96217 h 0.8851651 v 3.84846 h 1.1289583 v -3.84846 h 0.9107214 v -0.96217 z m 3.3418148,0 v 4.81063 h 1.0711208 l -0.1025613,-2.68117 0.012778,-0.0128 0.8787761,2.69394 h 1.1546263 v -4.8106 H 8.727457 l 0.1090624,2.68755 H 8.8172399 L 7.944965,292.0723 Z m 13.0956697,0.002 v 4.81063 h 1.520148 c 0.346369,0 0.705562,-0.0321 1.000616,-0.22452 0.327125,-0.20525 0.474671,-0.55799 0.481085,-1.03906 v -2.13596 c 0,-0.46183 -0.07059,-0.93012 -0.506753,-1.18668 -0.365611,-0.21167 -0.859456,-0.22441 -1.269966,-0.22441 z m 3.544695,0 v 3.48293 c 0,0.9878 0.558041,1.44315 1.513759,1.44315 1.154562,0 1.52026,-0.62854 1.52026,-1.44315 v -3.48293 h -1.128958 v 3.59839 c 0,0.20525 -0.08975,0.4618 -0.3848,0.4618 -0.320712,0 -0.391302,-0.19883 -0.391302,-0.42974 v -3.63045 z m -2.415849,0.86589 c 0.551623,0.0128 0.737631,0.0449 0.744045,0.60931 v 1.57149 c 0.01924,0.64142 0.01282,0.94936 -0.744045,0.89805 z"
       id="path1546" />
  </g>
</svg>
