<?xml version="1.0" encoding="UTF-8" standalone="no"?>
<svg
   xmlns:dc="http://purl.org/dc/elements/1.1/"
   xmlns:cc="http://creativecommons.org/ns#"
   xmlns:rdf="http://www.w3.org/1999/02/22-rdf-syntax-ns#"
   xmlns:svg="http://www.w3.org/2000/svg"
   xmlns="http://www.w3.org/2000/svg"
   width="100"
   height="19.055"
   viewBox="0 0 26.458333 5.0416356"
   version="1.1"
   id="svg1634">
  <defs
     id="defs1628" />
  <metadata
     id="metadata1631">
    <rdf:RDF>
      <cc:Work
         rdf:about="">
        <dc:format>image/svg+xml</dc:format>
        <dc:type
           rdf:resource="http://purl.org/dc/dcmitype/StillImage" />
        <dc:title></dc:title>
      </cc:Work>
    </rdf:RDF>
  </metadata>
  <path
     id="path2305"
     d="m 17.778029,8e-5 c -1.032695,0 -1.513765,0.48752 -1.513765,1.53305 v 1.97556 c 0,0.98139 0.404152,1.53294 1.443261,1.53294 1.154566,0 1.629218,-0.57727 1.629218,-1.40471 V 3.04689 H 18.20778 v 0.43614 c 0,0.29505 -0.032,0.69271 -0.41686,0.69271 -0.295056,0 -0.404082,-0.16035 -0.404082,-0.42975 l 0.0064,-2.37966 c 0,-0.3143 0.08336,-0.50678 0.43614,-0.50036 0.211671,0 0.359246,0.2117 0.359246,0.6222 v 0.30791 h 1.128851 V 1.392 C 19.317475,0.41062 18.74018,8e-5 17.778041,8e-5 Z M 0,0.11396 v 3.48295 c 0,0.98779 0.55804201,1.44326 1.5137654,1.44326 1.1545664,0 1.5201545,-0.62865 1.5201545,-1.44326 V 0.11396 H 1.9049575 v 3.5984 c 0,0.20526 -0.089747,0.46181 -0.384803,0.46181 -0.3207126,0 -0.3913035,-0.19884 -0.3913035,-0.42975 V 0.11396 Z m 3.4421493,0 V 1.07614 H 4.3273178 V 4.92472 H 5.4561695 V 1.07614 H 6.3670066 V 0.11396 Z m 3.3418289,0 v 4.81076 h 1.0711251 l -0.1025614,-2.68118 0.012776,-0.0129 0.87878,2.69406 h 1.154519 V 0.11395 H 8.7274921 L 8.8364427,2.80151 H 8.8172757 L 7.9448855,0.11395 Z m 13.0956128,0.001 V 4.9256 h 1.520266 c 0.34637,0 0.705565,-0.0321 1.000621,-0.22451 0.327127,-0.20526 0.474561,-0.558 0.480976,-1.03907 V 1.52605 c 0,-0.46183 -0.07048,-0.93001 -0.506644,-1.18658 C 22.009197,0.1278 21.515239,0.11496 21.104727,0.11496 Z m 3.544823,0 V 3.5979 c 0,0.9878 0.558041,1.44316 1.513765,1.44316 1.154566,0 1.520155,-0.62855 1.520155,-1.44316 V 0.11496 h -1.128851 v 3.5984 c 0,0.20525 -0.08986,0.4618 -0.384915,0.4618 -0.320712,0 -0.391303,-0.19883 -0.391303,-0.42975 V 0.11496 Z m -2.41586,0.86588 c 0.551625,0.0128 0.737634,0.045 0.744048,0.60943 v 1.57149 c 0.01925,0.64143 0.01284,0.94926 -0.744048,0.89795 z"
     style="font-style:normal;font-variant:normal;font-weight:900;font-stretch:condensed;font-size:29.57159615px;line-height:1.25;font-family:'Helvetica LT Std';-inkscape-font-specification:'Helvetica LT Std, Heavy Condensed';font-variant-ligatures:normal;font-variant-caps:normal;font-variant-numeric:normal;font-feature-settings:normal;text-align:start;letter-spacing:0px;word-spacing:0px;writing-mode:lr-tb;text-anchor:start;fill:#000000;fill-opacity:1;stroke:none;stroke-width:0.16035564" />
  <path
     id="rect1296"
     d="m 10.987323,0.11385 a 2.0451815,2.0451815 0 0 0 1.345744,1.91908 h -1.343503 -0.0021 v 0.97125 h 0.0021 1.343503 a 2.0451815,2.0463843 0 0 0 -1.345744,1.92031 h 0.971254 a 1.0739538,1.0745854 0 0 1 0.588355,-0.95836 v 0.95579 0.001 h 0.971254 V 3.96714 a 1.0739538,1.0745854 0 0 1 0.588357,0.95724 h 0.971141 A 2.0451815,2.0463843 0 0 0 13.734519,3.00406 h 1.343278 10e-4 V 2.03281 h -10e-4 -1.342942 a 2.0451815,2.0451815 0 0 0 1.34283,-1.91908 H 14.106543 A 1.0739538,1.0739538 0 0 1 13.518186,1.0703 V 0.11441 H 12.546933 V 1.07142 A 1.0739538,1.0739538 0 0 1 11.958577,0.11373 Z"
     style="fill:#000000;fill-opacity:1;stroke-width:0;stroke-linejoin:miter;stroke-miterlimit:4;stroke-dasharray:none" />
</svg>
