<?xml version="1.0" encoding="UTF-8" standalone="no"?>
<svg
   xmlns:dc="http://purl.org/dc/elements/1.1/"
   xmlns:cc="http://creativecommons.org/ns#"
   xmlns:rdf="http://www.w3.org/1999/02/22-rdf-syntax-ns#"
   xmlns:svg="http://www.w3.org/2000/svg"
   xmlns="http://www.w3.org/2000/svg"
   id="svg1634"
   version="1.1"
   viewBox="0 0 26.458333 4.7037626"
   height="17.778"
   width="100">
  <defs
     id="defs1628" />
  <metadata
     id="metadata1631">
    <rdf:RDF>
      <cc:Work
         rdf:about="">
        <dc:format>image/svg+xml</dc:format>
        <dc:type
           rdf:resource="http://purl.org/dc/dcmitype/StillImage" />
        <dc:title></dc:title>
      </cc:Work>
    </rdf:RDF>
  </metadata>
  <g
     transform="translate(0,-292.29621)"
     id="layer1">
    <path
       id="path2205"
       d="m 17.767733,292.2968 c -0.458388,0 -0.824615,0.14654 -1.098812,0.43957 -0.272103,0.29094 -0.408219,0.70117 -0.408219,1.23073 v 1.36579 c 0,0.53164 0.14127,0.94293 0.423838,1.23387 0.282569,0.28885 0.66038,0.43328 1.13342,0.43328 0.47304,0 0.830954,-0.1277 1.073754,-0.38305 0.242802,-0.25536 0.362182,-0.63423 0.357993,-1.13657 l -0.0094,-0.0189 h -0.860262 c 0.01046,0.3014 -0.02722,0.51489 -0.113038,0.64047 -0.08372,0.12349 -0.23342,0.18529 -0.449008,0.18529 -0.219775,0 -0.387149,-0.0785 -0.50227,-0.23551 -0.113027,-0.15699 -0.169557,-0.39657 -0.169557,-0.71891 v -1.37208 c 0,-0.31816 0.05337,-0.55575 0.160119,-0.71273 0.106747,-0.15698 0.260543,-0.2354 0.461481,-0.2354 0.234427,0 0.398752,0.0659 0.492942,0.19776 0.09418,0.13186 0.135031,0.34745 0.122477,0.64677 h 0.860262 l 0.0094,-0.0188 c -0.0084,-0.50863 -0.137119,-0.89276 -0.386197,-1.1523 -0.246985,-0.25954 -0.613325,-0.38934 -1.098924,-0.38934 z M 0,292.36118 v 3.11137 c 0,0.48561 0.14232339,0.86131 0.42698472,1.12713 0.2867547,0.26583 0.66140628,0.39879 1.12398088,0.39879 0.4625752,0 0.8361735,-0.13191 1.1208353,-0.39564 0.2867543,-0.26582 0.4301307,-0.64258 0.4301307,-1.13028 v -3.11137 H 2.2133543 v 3.11137 c 0,0.29095 -0.056419,0.49928 -0.169446,0.62486 -0.1130275,0.12559 -0.2773532,0.18833 -0.4929427,0.18833 -0.2093094,0 -0.3715295,-0.0659 -0.48665,-0.19777 -0.11512035,-0.13186 -0.17270387,-0.33703 -0.17270387,-0.61542 v -3.11137 z m 3.488128,0 v 0.71588 h 1.0235272 v 3.85544 h 0.8916114 v -3.85544 h 1.0298197 v -0.71588 z m 3.3813822,0 v 4.57132 h 0.8947573 v -2.91664 l 0.018878,-0.006 1.3971387,2.92293 h 0.8885778 v -4.57133 H 9.1802834 v 2.91361 l -0.018878,0.006 -1.3971389,-2.9199 z m 12.9202208,0.002 v 4.57132 h 1.381407 c 0.468854,0 0.856032,-0.17685 1.161624,-0.53058 0.305592,-0.35373 0.458447,-0.81008 0.458447,-1.36894 v -0.76913 c 0,-0.55886 -0.152855,-1.0152 -0.458447,-1.36894 -0.305592,-0.35582 -0.69277,-0.53373 -1.161624,-0.53373 z m 3.566557,0 v 3.11137 c 0,0.4856 0.142324,0.8613 0.426986,1.12713 0.286753,0.26582 0.661406,0.39878 1.12398,0.39878 0.462576,0 0.836286,-0.1319 1.120947,-0.39563 0.286754,-0.2659 0.430132,-0.64265 0.430132,-1.13034 v -3.11137 h -0.888577 v 3.11137 c 0,0.29094 -0.05653,0.49927 -0.169558,0.62485 -0.113029,0.12559 -0.277354,0.18833 -0.492944,0.18833 -0.209308,0 -0.371417,-0.0659 -0.486538,-0.19776 -0.11512,-0.13187 -0.172703,-0.33704 -0.172703,-0.61542 v -3.11137 z m -2.6718,0.71587 h 0.436423 c 0.249079,0 0.440561,0.1078 0.57452,0.32339 0.136051,0.21559 0.204052,0.50129 0.204052,0.85712 v 0.77542 c 0,0.35792 -0.068,0.64573 -0.204052,0.86341 -0.133959,0.21559 -0.325441,0.32339 -0.57452,0.32339 h -0.436423 z"
       style="font-style:normal;font-variant:normal;font-weight:bold;font-stretch:condensed;font-size:29.57159615px;line-height:1.25;font-family:'Roboto Condensed';-inkscape-font-specification:'Roboto Condensed, Bold Condensed';font-variant-ligatures:normal;font-variant-caps:normal;font-variant-numeric:normal;font-feature-settings:normal;text-align:start;letter-spacing:0px;word-spacing:0px;writing-mode:lr-tb;text-anchor:start;fill:#000000;fill-opacity:1;stroke:none;stroke-width:0.16074927" />
    <path
       id="path1320"
       d="m 12.779905,292.35984 v 1.24994 a 1.308436,1.308436 0 0 1 -0.918242,-1.24871 h -0.673287 a 1.9817834,1.9817834 0 0 0 1.43478,1.90402 h -1.43478 v 0.7652 h 1.436241 a 1.9817834,1.9817834 0 0 0 -1.436241,1.90368 h 0.673287 a 1.308436,1.308436 0 0 1 0.918242,-1.24747 v 1.24747 h 0.765201 v -1.2532 a 1.308436,1.308436 0 0 1 0.933524,1.2532 h 0.6734 a 1.9817834,1.9817834 0 0 0 -1.43377,-1.90368 h 1.43377 v -0.7652 h -1.43804 a 1.9817834,1.9817834 0 0 0 1.43804,-1.90402 h -0.6734 a 1.308436,1.308436 0 0 1 -0.933524,1.25264 v -1.25387 z"
       style="opacity:1;fill:#000000;fill-opacity:1;stroke-width:0.09124957" />
  </g>
</svg>
