<?xml version="1.0" encoding="UTF-8" standalone="no"?>
<svg
   xmlns:dc="http://purl.org/dc/elements/1.1/"
   xmlns:cc="http://creativecommons.org/ns#"
   xmlns:rdf="http://www.w3.org/1999/02/22-rdf-syntax-ns#"
   xmlns:svg="http://www.w3.org/2000/svg"
   xmlns="http://www.w3.org/2000/svg"
   id="svg1634"
   version="1.1"
   viewBox="0 0 26.458333 3.6192355"
   height="13.679"
   width="100">
  <defs
     id="defs1628" />
  <metadata
     id="metadata1631">
    <rdf:RDF>
      <cc:Work
         rdf:about="">
        <dc:format>image/svg+xml</dc:format>
        <dc:type
           rdf:resource="http://purl.org/dc/dcmitype/StillImage" />
        <dc:title></dc:title>
      </cc:Work>
    </rdf:RDF>
  </metadata>
  <g
     transform="translate(0,-293.38074)"
     id="layer1">
    <path
       id="path2391"
       d="m 17.141717,293.38066 c -1.11247,0 -1.928314,0.74659 -1.928314,1.80962 0,1.06302 0.815844,1.80961 1.928314,1.80961 0.67737,0 1.21135,-0.2472 1.552508,-0.69219 l -0.736759,-0.65763 c -0.202717,0.25711 -0.44498,0.40552 -0.756471,0.40552 -0.484542,0 -0.810892,-0.33627 -0.810892,-0.86531 0,-0.52905 0.32635,-0.86517 0.810892,-0.86517 0.311491,0 0.553754,0.14827 0.756471,0.40537 l 0.736759,-0.65763 c -0.341158,-0.44498 -0.875138,-0.69219 -1.552508,-0.69219 z M 0,293.45865 v 1.90346 c 0,1.03831 0.62303459,1.63664 1.6860612,1.63664 1.0630266,0 1.6859183,-0.59833 1.6859183,-1.63664 v -1.90346 H 2.2249894 v 1.86889 c 0,0.52904 -0.202748,0.72676 -0.5290724,0.72676 -0.3263244,0 -0.5290724,-0.19772 -0.5290724,-0.72676 v -1.86889 z m 3.5916645,0 v 0.90474 h 1.0137222 v 2.55623 h 1.1668446 v -2.55623 h 1.0135793 v -0.90474 z m 3.4971058,0 v 3.46097 h 1.1372772 v -1.57222 l 1.3151104,1.57222 h 0.9593011 v -3.46097 H 9.3631819 v 1.57222 l -1.3151104,-1.57222 z m 11.9424097,0.001 v 3.46097 h 1.705773 c 1.156968,0 1.953025,-0.65757 1.953025,-1.73048 0,-1.07292 -0.796057,-1.73049 -1.953025,-1.73049 z m 4.055174,0 v 1.90361 c 0,1.0383 0.622892,1.63649 1.685919,1.63649 1.063026,0 1.68606,-0.59819 1.68606,-1.63649 v -1.90361 h -1.147132 v 1.8689 c 0,0.52904 -0.202605,0.7269 -0.52893,0.7269 -0.326325,0 -0.529072,-0.19786 -0.529072,-0.7269 v -1.8689 z m -2.88833,0.90974 h 0.489507 c 0.489486,0 0.825604,0.2917 0.825604,0.82075 0,0.52904 -0.336118,0.82074 -0.825604,0.82074 h -0.489507 z"
       style="font-style:normal;font-variant:normal;font-weight:900;font-stretch:normal;font-size:17.88768196px;line-height:1.25;font-family:Montserrat;-inkscape-font-specification:'Montserrat, Heavy';font-variant-ligatures:normal;font-variant-caps:normal;font-variant-numeric:normal;font-feature-settings:normal;text-align:start;letter-spacing:0px;word-spacing:0px;writing-mode:lr-tb;text-anchor:start;fill:#000000;fill-opacity:1;stroke:none;stroke-width:0.12360718" />
    <path
       id="rect1344"
       d="m 11.385198,293.45851 a 1.4713495,1.4713495 0 0 0 0.968014,1.38067 h -0.966443 -0.0016 v 0.69876 h 0.0016 0.966586 a 1.4713495,1.4722149 0 0 0 -0.968157,1.38153 h 0.698621 A 0.77262653,0.7730809 0 0 1 12.507191,296.23 v 0.68762 8.6e-4 h 0.698622 v -0.68763 a 0.77262653,0.7730809 0 0 1 0.423372,0.68862 h 0.698621 a 1.4713495,1.4722149 0 0 0 -0.966157,-1.38153 h 0.9663 7.14e-4 v -0.69876 h -7.14e-4 -0.966157 a 1.4713495,1.4713495 0 0 0 0.966014,-1.38067 h -0.698621 a 0.77262653,0.77262653 0 0 1 -0.423372,0.68819 v -0.68762 h -0.698622 v 0.68862 a 0.77262653,0.77262653 0 0 1 -0.423372,-0.68919 z"
       style="fill:#000000;fill-opacity:1;stroke-width:0;stroke-linejoin:miter;stroke-miterlimit:4;stroke-dasharray:none" />
  </g>
</svg>
